<mxfile host="app.diagrams.net" agent="Mozilla/5.0 (Macintosh; Intel Mac OS X 10_15_7) AppleWebKit/537.36 (KHTML, like Gecko) Chrome/134.0.0.0 Safari/537.36" version="26.1.1">
  <diagram name="Page-1" id="Ku6Y-NdNK4hHC_41F7gm">
    <mxGraphModel dx="1553" dy="903" grid="0" gridSize="10" guides="1" tooltips="1" connect="1" arrows="1" fold="1" page="0" pageScale="1" pageWidth="827" pageHeight="1169" math="0" shadow="0">
      <root>
        <mxCell id="0" />
        <mxCell id="1" parent="0" />
        <mxCell id="gRHxIQyRV439LcZptU3T-1" value="From Dashboard" style="rounded=1;whiteSpace=wrap;arcSize=50;strokeWidth=2;labelBackgroundColor=none;fillColor=#FAE5C7;strokeColor=#0F8B8D;fontColor=#143642;" parent="1" vertex="1">
          <mxGeometry x="366" y="72" width="141" height="39" as="geometry" />
        </mxCell>
        <mxCell id="gRHxIQyRV439LcZptU3T-2" value="Orders Page" style="whiteSpace=wrap;strokeWidth=2;labelBackgroundColor=none;fillColor=#FAE5C7;strokeColor=#0F8B8D;fontColor=#143642;" parent="1" vertex="1">
          <mxGeometry x="364" y="135" width="145" height="54" as="geometry" />
        </mxCell>
        <mxCell id="gRHxIQyRV439LcZptU3T-3" value="Order Action" style="rhombus;strokeWidth=2;whiteSpace=wrap;labelBackgroundColor=none;fillColor=#FAE5C7;strokeColor=#0F8B8D;fontColor=#143642;" parent="1" vertex="1">
          <mxGeometry x="364" y="213" width="144" height="144" as="geometry" />
        </mxCell>
        <mxCell id="gRHxIQyRV439LcZptU3T-4" value="View Orders" style="whiteSpace=wrap;strokeWidth=2;labelBackgroundColor=none;fillColor=#FAE5C7;strokeColor=#0F8B8D;fontColor=#143642;" parent="1" vertex="1">
          <mxGeometry x="78.5" y="258" width="202" height="54" as="geometry" />
        </mxCell>
        <mxCell id="gRHxIQyRV439LcZptU3T-5" value="New Order Form" style="whiteSpace=wrap;strokeWidth=2;labelBackgroundColor=none;fillColor=#FAE5C7;strokeColor=#0F8B8D;fontColor=#143642;" parent="1" vertex="1">
          <mxGeometry x="571" y="258" width="232" height="54" as="geometry" />
        </mxCell>
        <mxCell id="gRHxIQyRV439LcZptU3T-7" value="Filter/Search Orders" style="whiteSpace=wrap;strokeWidth=2;labelBackgroundColor=none;fillColor=#FAE5C7;strokeColor=#0F8B8D;fontColor=#143642;" parent="1" vertex="1">
          <mxGeometry x="75" y="335" width="207" height="54" as="geometry" />
        </mxCell>
        <mxCell id="gRHxIQyRV439LcZptU3T-8" value="Select Order to View" style="whiteSpace=wrap;strokeWidth=2;labelBackgroundColor=none;fillColor=#FAE5C7;strokeColor=#0F8B8D;fontColor=#143642;" parent="1" vertex="1">
          <mxGeometry x="75" y="418" width="209" height="54" as="geometry" />
        </mxCell>
        <mxCell id="gRHxIQyRV439LcZptU3T-9" value="Order Details" style="whiteSpace=wrap;strokeWidth=2;labelBackgroundColor=none;fillColor=#FAE5C7;strokeColor=#0F8B8D;fontColor=#143642;" parent="1" vertex="1">
          <mxGeometry x="76.5" y="502" width="207" height="54" as="geometry" />
        </mxCell>
        <mxCell id="gRHxIQyRV439LcZptU3T-10" value="Edit Order?" style="rhombus;strokeWidth=2;whiteSpace=wrap;labelBackgroundColor=none;fillColor=#FAE5C7;strokeColor=#0F8B8D;fontColor=#143642;" parent="1" vertex="1">
          <mxGeometry x="111.5" y="593" width="134" height="134" as="geometry" />
        </mxCell>
        <mxCell id="gRHxIQyRV439LcZptU3T-11" value="Update Order" style="whiteSpace=wrap;strokeWidth=2;labelBackgroundColor=none;fillColor=#FAE5C7;strokeColor=#0F8B8D;fontColor=#143642;" parent="1" vertex="1">
          <mxGeometry x="100" y="781" width="157" height="54" as="geometry" />
        </mxCell>
        <mxCell id="gRHxIQyRV439LcZptU3T-12" value="Search/Select Customer" style="whiteSpace=wrap;strokeWidth=2;labelBackgroundColor=none;fillColor=#FAE5C7;strokeColor=#0F8B8D;fontColor=#143642;" parent="1" vertex="1">
          <mxGeometry x="572.5" y="345" width="233" height="54" as="geometry" />
        </mxCell>
        <mxCell id="gRHxIQyRV439LcZptU3T-13" value="Customer Exists?" style="rhombus;strokeWidth=2;whiteSpace=wrap;labelBackgroundColor=none;fillColor=#FAE5C7;strokeColor=#0F8B8D;fontColor=#143642;" parent="1" vertex="1">
          <mxGeometry x="602.5" y="422" width="173" height="173" as="geometry" />
        </mxCell>
        <mxCell id="gRHxIQyRV439LcZptU3T-14" value="Add New Customer" style="whiteSpace=wrap;strokeWidth=2;labelBackgroundColor=none;fillColor=#FAE5C7;strokeColor=#0F8B8D;fontColor=#143642;" parent="1" vertex="1">
          <mxGeometry x="582" y="630" width="209" height="54" as="geometry" />
        </mxCell>
        <mxCell id="gRHxIQyRV439LcZptU3T-15" value="Complete Order Form" style="whiteSpace=wrap;strokeWidth=2;labelBackgroundColor=none;fillColor=#FAE5C7;strokeColor=#0F8B8D;fontColor=#143642;" parent="1" vertex="1">
          <mxGeometry x="581" y="711" width="211" height="54" as="geometry" />
        </mxCell>
        <mxCell id="gRHxIQyRV439LcZptU3T-16" value="Add Products to Order" style="whiteSpace=wrap;strokeWidth=2;labelBackgroundColor=none;fillColor=#FAE5C7;strokeColor=#0F8B8D;fontColor=#143642;" parent="1" vertex="1">
          <mxGeometry x="579.5" y="795" width="211.5" height="54" as="geometry" />
        </mxCell>
        <mxCell id="gRHxIQyRV439LcZptU3T-17" value="Set Delivery Date/Time" style="whiteSpace=wrap;strokeWidth=2;labelBackgroundColor=none;fillColor=#FAE5C7;strokeColor=#0F8B8D;fontColor=#143642;" parent="1" vertex="1">
          <mxGeometry x="579" y="874" width="212" height="54" as="geometry" />
        </mxCell>
        <mxCell id="gRHxIQyRV439LcZptU3T-18" value="Save Order" style="whiteSpace=wrap;strokeWidth=2;labelBackgroundColor=none;fillColor=#FAE5C7;strokeColor=#0F8B8D;fontColor=#143642;" parent="1" vertex="1">
          <mxGeometry x="580" y="951" width="212" height="54" as="geometry" />
        </mxCell>
        <mxCell id="gRHxIQyRV439LcZptU3T-19" value="Order Confirmation" style="whiteSpace=wrap;strokeWidth=2;labelBackgroundColor=none;fillColor=#FAE5C7;strokeColor=#0F8B8D;fontColor=#143642;" parent="1" vertex="1">
          <mxGeometry x="580" y="1032" width="212" height="54" as="geometry" />
        </mxCell>
        <mxCell id="gRHxIQyRV439LcZptU3T-20" value="" style="curved=1;startArrow=none;endArrow=block;exitX=0.5;exitY=1;entryX=0.5;entryY=0;rounded=0;labelBackgroundColor=none;strokeColor=#A8201A;fontColor=default;" parent="1" source="gRHxIQyRV439LcZptU3T-1" target="gRHxIQyRV439LcZptU3T-2" edge="1">
          <mxGeometry relative="1" as="geometry">
            <Array as="points" />
          </mxGeometry>
        </mxCell>
        <mxCell id="gRHxIQyRV439LcZptU3T-21" value="" style="curved=1;startArrow=none;endArrow=block;exitX=0.5;exitY=1;entryX=0.5;entryY=0;rounded=0;labelBackgroundColor=none;strokeColor=#A8201A;fontColor=default;" parent="1" source="gRHxIQyRV439LcZptU3T-2" target="gRHxIQyRV439LcZptU3T-3" edge="1">
          <mxGeometry relative="1" as="geometry">
            <Array as="points" />
          </mxGeometry>
        </mxCell>
        <mxCell id="gRHxIQyRV439LcZptU3T-22" value="View Orders" style="startArrow=none;endArrow=block;exitX=0;exitY=0.5;entryX=1;entryY=0.5;rounded=0;labelBackgroundColor=none;strokeColor=#A8201A;fontColor=default;exitDx=0;exitDy=0;entryDx=0;entryDy=0;" parent="1" source="gRHxIQyRV439LcZptU3T-3" target="gRHxIQyRV439LcZptU3T-4" edge="1">
          <mxGeometry x="-0.0419" y="13" relative="1" as="geometry">
            <mxPoint as="offset" />
          </mxGeometry>
        </mxCell>
        <mxCell id="gRHxIQyRV439LcZptU3T-23" value="New Order" style="startArrow=none;endArrow=block;exitX=1;exitY=0.5;entryX=0;entryY=0.5;rounded=0;labelBackgroundColor=none;strokeColor=#A8201A;fontColor=default;exitDx=0;exitDy=0;entryDx=0;entryDy=0;" parent="1" source="gRHxIQyRV439LcZptU3T-3" target="gRHxIQyRV439LcZptU3T-5" edge="1">
          <mxGeometry x="-0.1746" y="-12" relative="1" as="geometry">
            <mxPoint as="offset" />
          </mxGeometry>
        </mxCell>
        <mxCell id="gRHxIQyRV439LcZptU3T-25" value="" style="startArrow=none;endArrow=block;exitX=0.5;exitY=1;entryX=0.5;entryY=0;rounded=0;labelBackgroundColor=none;strokeColor=#A8201A;fontColor=default;exitDx=0;exitDy=0;" parent="1" source="gRHxIQyRV439LcZptU3T-4" target="gRHxIQyRV439LcZptU3T-7" edge="1">
          <mxGeometry relative="1" as="geometry" />
        </mxCell>
        <mxCell id="gRHxIQyRV439LcZptU3T-26" value="" style="curved=0;startArrow=none;endArrow=block;exitX=0.5;exitY=1;entryX=0.5;entryY=0.01;rounded=0;labelBackgroundColor=none;strokeColor=#A8201A;fontColor=default;" parent="1" source="gRHxIQyRV439LcZptU3T-7" target="gRHxIQyRV439LcZptU3T-8" edge="1">
          <mxGeometry relative="1" as="geometry">
            <Array as="points" />
          </mxGeometry>
        </mxCell>
        <mxCell id="gRHxIQyRV439LcZptU3T-27" value="" style="curved=0;startArrow=none;endArrow=block;exitX=0.5;exitY=1.01;entryX=0.5;entryY=0.01;rounded=0;labelBackgroundColor=none;strokeColor=#A8201A;fontColor=default;" parent="1" source="gRHxIQyRV439LcZptU3T-8" target="gRHxIQyRV439LcZptU3T-9" edge="1">
          <mxGeometry relative="1" as="geometry">
            <Array as="points" />
          </mxGeometry>
        </mxCell>
        <mxCell id="gRHxIQyRV439LcZptU3T-28" value="" style="startArrow=none;endArrow=block;exitX=0.5;exitY=1.01;entryX=0.5;entryY=0;rounded=0;labelBackgroundColor=none;strokeColor=#A8201A;fontColor=default;entryDx=0;entryDy=0;" parent="1" source="gRHxIQyRV439LcZptU3T-9" target="gRHxIQyRV439LcZptU3T-10" edge="1">
          <mxGeometry relative="1" as="geometry" />
        </mxCell>
        <mxCell id="gRHxIQyRV439LcZptU3T-29" value="Yes" style="startArrow=none;endArrow=block;exitX=0.5;exitY=1;entryX=0.5;entryY=0;rounded=0;labelBackgroundColor=none;strokeColor=#A8201A;fontColor=default;entryDx=0;entryDy=0;" parent="1" source="gRHxIQyRV439LcZptU3T-10" target="gRHxIQyRV439LcZptU3T-11" edge="1">
          <mxGeometry relative="1" as="geometry" />
        </mxCell>
        <mxCell id="gRHxIQyRV439LcZptU3T-30" value="No" style="startArrow=none;endArrow=block;exitX=0;exitY=0.5;entryX=0;entryY=0.5;rounded=0;labelBackgroundColor=none;strokeColor=#A8201A;fontColor=default;exitDx=0;exitDy=0;entryDx=0;entryDy=0;edgeStyle=orthogonalEdgeStyle;" parent="1" source="gRHxIQyRV439LcZptU3T-10" target="gRHxIQyRV439LcZptU3T-2" edge="1">
          <mxGeometry x="-0.8864" relative="1" as="geometry">
            <Array as="points">
              <mxPoint x="50" y="660" />
              <mxPoint x="50" y="162" />
            </Array>
            <mxPoint as="offset" />
          </mxGeometry>
        </mxCell>
        <mxCell id="gRHxIQyRV439LcZptU3T-31" value="" style="startArrow=none;endArrow=block;exitX=0;exitY=0.5;entryX=0;entryY=0.5;rounded=0;labelBackgroundColor=none;strokeColor=#A8201A;fontColor=default;exitDx=0;exitDy=0;entryDx=0;entryDy=0;edgeStyle=orthogonalEdgeStyle;" parent="1" source="gRHxIQyRV439LcZptU3T-11" target="gRHxIQyRV439LcZptU3T-2" edge="1">
          <mxGeometry relative="1" as="geometry">
            <Array as="points">
              <mxPoint x="14" y="808" />
              <mxPoint x="14" y="162" />
            </Array>
          </mxGeometry>
        </mxCell>
        <mxCell id="MoyMHxQd0dWBCN1l7mLK-3" value="Back" style="edgeLabel;html=1;align=center;verticalAlign=middle;resizable=0;points=[];" vertex="1" connectable="0" parent="gRHxIQyRV439LcZptU3T-31">
          <mxGeometry x="-0.2118" relative="1" as="geometry">
            <mxPoint as="offset" />
          </mxGeometry>
        </mxCell>
        <mxCell id="gRHxIQyRV439LcZptU3T-32" value="" style="curved=0;startArrow=none;endArrow=block;exitX=0.5;exitY=1;entryX=0.5;entryY=0;rounded=0;labelBackgroundColor=none;strokeColor=#A8201A;fontColor=default;" parent="1" source="gRHxIQyRV439LcZptU3T-5" target="gRHxIQyRV439LcZptU3T-12" edge="1">
          <mxGeometry relative="1" as="geometry">
            <Array as="points" />
          </mxGeometry>
        </mxCell>
        <mxCell id="gRHxIQyRV439LcZptU3T-33" value="" style="curved=0;startArrow=none;endArrow=block;exitX=0.5;exitY=1;entryX=0.5;entryY=0;rounded=0;labelBackgroundColor=none;strokeColor=#A8201A;fontColor=default;" parent="1" source="gRHxIQyRV439LcZptU3T-12" target="gRHxIQyRV439LcZptU3T-13" edge="1">
          <mxGeometry relative="1" as="geometry">
            <Array as="points" />
          </mxGeometry>
        </mxCell>
        <mxCell id="gRHxIQyRV439LcZptU3T-34" value="No" style="startArrow=none;endArrow=block;exitX=0.5;exitY=1;entryX=0.5;entryY=0.01;rounded=0;labelBackgroundColor=none;strokeColor=#A8201A;fontColor=default;exitDx=0;exitDy=0;" parent="1" source="gRHxIQyRV439LcZptU3T-13" target="gRHxIQyRV439LcZptU3T-14" edge="1">
          <mxGeometry relative="1" as="geometry" />
        </mxCell>
        <mxCell id="gRHxIQyRV439LcZptU3T-35" value="Yes" style="startArrow=none;endArrow=block;exitX=1;exitY=0.5;entryX=1;entryY=0.5;rounded=0;labelBackgroundColor=none;strokeColor=#A8201A;fontColor=default;exitDx=0;exitDy=0;entryDx=0;entryDy=0;edgeStyle=orthogonalEdgeStyle;" parent="1" source="gRHxIQyRV439LcZptU3T-13" target="gRHxIQyRV439LcZptU3T-15" edge="1">
          <mxGeometry relative="1" as="geometry">
            <Array as="points">
              <mxPoint x="831" y="509" />
              <mxPoint x="831" y="738" />
            </Array>
          </mxGeometry>
        </mxCell>
        <mxCell id="gRHxIQyRV439LcZptU3T-36" value="" style="startArrow=none;endArrow=block;exitX=0.5;exitY=1.01;entryX=0.5;entryY=0;rounded=0;labelBackgroundColor=none;strokeColor=#A8201A;fontColor=default;entryDx=0;entryDy=0;" parent="1" source="gRHxIQyRV439LcZptU3T-14" target="gRHxIQyRV439LcZptU3T-15" edge="1">
          <mxGeometry relative="1" as="geometry" />
        </mxCell>
        <mxCell id="gRHxIQyRV439LcZptU3T-37" value="" style="curved=0;startArrow=none;endArrow=block;exitX=0.5;exitY=1.01;entryX=0.5;entryY=0;rounded=0;labelBackgroundColor=none;strokeColor=#A8201A;fontColor=default;" parent="1" source="gRHxIQyRV439LcZptU3T-15" target="gRHxIQyRV439LcZptU3T-16" edge="1">
          <mxGeometry relative="1" as="geometry">
            <Array as="points" />
          </mxGeometry>
        </mxCell>
        <mxCell id="gRHxIQyRV439LcZptU3T-38" value="" style="curved=0;startArrow=none;endArrow=block;exitX=0.5;exitY=1;entryX=0.5;entryY=0;rounded=0;labelBackgroundColor=none;strokeColor=#A8201A;fontColor=default;" parent="1" source="gRHxIQyRV439LcZptU3T-16" target="gRHxIQyRV439LcZptU3T-17" edge="1">
          <mxGeometry relative="1" as="geometry">
            <Array as="points" />
          </mxGeometry>
        </mxCell>
        <mxCell id="gRHxIQyRV439LcZptU3T-39" value="" style="curved=0;startArrow=none;endArrow=block;exitX=0.5;exitY=1;entryX=0.5;entryY=0;rounded=0;labelBackgroundColor=none;strokeColor=#A8201A;fontColor=default;" parent="1" source="gRHxIQyRV439LcZptU3T-17" target="gRHxIQyRV439LcZptU3T-18" edge="1">
          <mxGeometry relative="1" as="geometry">
            <Array as="points" />
          </mxGeometry>
        </mxCell>
        <mxCell id="gRHxIQyRV439LcZptU3T-40" value="" style="curved=0;startArrow=none;endArrow=block;exitX=0.5;exitY=1;entryX=0.5;entryY=0;rounded=0;labelBackgroundColor=none;strokeColor=#A8201A;fontColor=default;" parent="1" source="gRHxIQyRV439LcZptU3T-18" target="gRHxIQyRV439LcZptU3T-19" edge="1">
          <mxGeometry relative="1" as="geometry">
            <Array as="points" />
          </mxGeometry>
        </mxCell>
        <mxCell id="gRHxIQyRV439LcZptU3T-41" value="" style="startArrow=none;endArrow=block;exitX=1;exitY=0.5;entryX=1;entryY=0.5;rounded=0;labelBackgroundColor=none;strokeColor=#A8201A;fontColor=default;exitDx=0;exitDy=0;entryDx=0;entryDy=0;edgeStyle=orthogonalEdgeStyle;" parent="1" source="gRHxIQyRV439LcZptU3T-19" target="gRHxIQyRV439LcZptU3T-2" edge="1">
          <mxGeometry relative="1" as="geometry">
            <Array as="points">
              <mxPoint x="859" y="1059" />
              <mxPoint x="859" y="162" />
            </Array>
            <mxPoint x="521" y="1059" as="targetPoint" />
          </mxGeometry>
        </mxCell>
        <mxCell id="MoyMHxQd0dWBCN1l7mLK-2" value="Back" style="edgeLabel;html=1;align=center;verticalAlign=middle;resizable=0;points=[];" vertex="1" connectable="0" parent="gRHxIQyRV439LcZptU3T-41">
          <mxGeometry x="-0.1626" y="-1" relative="1" as="geometry">
            <mxPoint x="1" y="1" as="offset" />
          </mxGeometry>
        </mxCell>
      </root>
    </mxGraphModel>
  </diagram>
</mxfile>
